<svg width="46" height="47" viewBox="0 0 46 47" fill="none" xmlns="http://www.w3.org/2000/svg">
<path id="Vector" d="M23 23.1607C29.3538 23.1607 34.5 17.9785 34.5 11.5804C34.5 5.18221 29.3538 0 23 0C16.6462 0 11.5 5.18221 11.5 11.5804C11.5 17.9785 16.6462 23.1607 23 23.1607ZM23 5.79018C26.1625 5.79018 28.75 8.39576 28.75 11.5804C28.75 14.765 26.1625 17.3705 23 17.3705C19.8375 17.3705 17.25 14.765 17.25 11.5804C17.25 8.39576 19.8375 5.79018 23 5.79018ZM23 26.0558C15.3237 26.0558 0 29.9352 0 37.6362V46.3214H46V37.6362C46 29.9352 30.6763 26.0558 23 26.0558ZM40.25 40.5312H5.75V37.6651C6.325 35.5807 15.2375 31.846 23 31.846C30.7625 31.846 39.675 35.5807 40.25 37.6362V40.5312Z" fill="white"/>
</svg>
