<svg width="46" height="47" viewBox="0 0 46 47" fill="none" xmlns="http://www.w3.org/2000/svg">
<path id="Vector" d="M1.45845e-08 13.1862L22.2765 27.4454C22.5 27.5884 22.7481 27.6631 23 27.6631C23.2519 27.6631 23.5 27.5884 23.7235 27.4454L46 13.1887V37.9578C46.0001 40.0941 45.336 42.1495 44.144 43.7023C42.9519 45.2551 41.3222 46.1876 39.5893 46.3086L39.2045 46.3214H6.79545C5.05971 46.3216 3.38972 45.5042 2.12806 44.0371C0.866404 42.5699 0.108725 40.5642 0.0104548 38.4313L1.45845e-08 37.9578V13.1862ZM6.79545 1.795e-08H39.2045C40.9403 -0.000139857 42.6103 0.817197 43.8719 2.28435C45.1336 3.75149 45.8913 5.75722 45.9895 7.89008L46 8.36359V8.8371L23 23.557L1.45845e-08 8.8371V8.36359C-0.000113634 6.2273 0.663977 4.17194 1.85604 2.61914C3.0481 1.06634 4.67777 0.133814 6.41073 0.0128674L6.79545 1.795e-08Z" fill="white"/>
</svg>
