<svg width="60" height="60" viewBox="0 0 60 60" fill="none" xmlns="http://www.w3.org/2000/svg">
<g id="Group 39">
<ellipse id="Ellipse 2" cx="30" cy="29.9419" rx="30" ry="29.9419" fill="#87FF4E"/>
<path id="Vector" d="M46.9231 16.6345H39.2308V14.971C39.2308 13.6475 38.7445 12.3782 37.879 11.4423C37.0134 10.5065 35.8395 9.98071 34.6154 9.98071H25.3846C24.1605 9.98071 22.9866 10.5065 22.121 11.4423C21.2555 12.3782 20.7692 13.6475 20.7692 14.971V16.6345H13.0769C12.2609 16.6345 11.4782 16.985 10.9012 17.6089C10.3242 18.2328 10 19.079 10 19.9613V46.5763C10 47.4587 10.3242 48.3049 10.9012 48.9288C11.4782 49.5527 12.2609 49.9032 13.0769 49.9032H46.9231C47.7391 49.9032 48.5218 49.5527 49.0988 48.9288C49.6758 48.3049 50 47.4587 50 46.5763V19.9613C50 19.079 49.6758 18.2328 49.0988 17.6089C48.5218 16.985 47.7391 16.6345 46.9231 16.6345ZM23.8462 14.971C23.8462 14.5299 24.0082 14.1068 24.2968 13.7948C24.5853 13.4828 24.9766 13.3076 25.3846 13.3076H34.6154C35.0234 13.3076 35.4147 13.4828 35.7032 13.7948C35.9918 14.1068 36.1538 14.5299 36.1538 14.971V16.6345H23.8462V14.971ZM46.9231 19.9613V28.6133C41.7303 31.6694 35.9122 33.27 30 33.2688C24.0881 33.27 18.27 31.6702 13.0769 28.6154V19.9613H46.9231ZM46.9231 46.5763H13.0769V32.3623C18.346 35.1489 24.1344 36.5969 30 36.5957C35.8657 36.5958 41.654 35.1471 46.9231 32.3602V46.5763ZM25.3846 28.2785C25.3846 27.8373 25.5467 27.4142 25.8352 27.1023C26.1237 26.7903 26.5151 26.6151 26.9231 26.6151H33.0769C33.4849 26.6151 33.8763 26.7903 34.1648 27.1023C34.4533 27.4142 34.6154 27.8373 34.6154 28.2785C34.6154 28.7197 34.4533 29.1428 34.1648 29.4547C33.8763 29.7667 33.4849 29.942 33.0769 29.942H26.9231C26.5151 29.942 26.1237 29.7667 25.8352 29.4547C25.5467 29.1428 25.3846 28.7197 25.3846 28.2785Z" fill="black"/>
</g>
</svg>
