<svg width="46" height="47" viewBox="0 0 46 47" fill="none" xmlns="http://www.w3.org/2000/svg">
<g id="Group 3">
<path id="Vector" d="M23.5328 7.16328C23.3901 7.01603 23.2003 6.93384 23.0029 6.93384C22.8054 6.93384 22.6156 7.01603 22.4729 7.16328L4.83004 25.3475C4.75511 25.4249 4.6955 25.5178 4.65481 25.6207C4.61413 25.7236 4.59321 25.8343 4.59333 25.9462L4.59045 43.0128C4.59045 43.8903 4.91355 44.7318 5.48866 45.3523C6.06377 45.9728 6.84378 46.3214 7.65711 46.3214H16.8667C17.2733 46.3214 17.6633 46.1471 17.9509 45.8369C18.2385 45.5266 18.4 45.1059 18.4 44.6671V30.6052C18.4 30.3859 18.4808 30.1755 18.6246 30.0203C18.7683 29.8652 18.9633 29.7781 19.1667 29.7781H26.8333C27.0366 29.7781 27.2317 29.8652 27.3754 30.0203C27.5192 30.1755 27.6 30.3859 27.6 30.6052V44.6671C27.6 45.1059 27.7615 45.5266 28.0491 45.8369C28.3366 46.1471 28.7266 46.3214 29.1333 46.3214H38.339C39.1524 46.3214 39.9324 45.9728 40.5075 45.3523C41.0826 44.7318 41.4057 43.8903 41.4057 43.0128V25.9462C41.4058 25.8343 41.3849 25.7236 41.3442 25.6207C41.3035 25.5178 41.2439 25.4249 41.169 25.3475L23.5328 7.16328Z" fill="white"/>
<path id="Vector_2" d="M45.5121 21.9355L38.3438 14.5365V3.30867C38.3438 2.86992 38.1823 2.44913 37.8947 2.13888C37.6072 1.82863 37.2171 1.65434 36.8105 1.65434H32.2105C31.8038 1.65434 31.4138 1.82863 31.1263 2.13888C30.8387 2.44913 30.6772 2.86992 30.6772 3.30867V6.61735L25.1265 0.891274C24.6071 0.324663 23.8347 0 23 0C22.1681 0 21.3976 0.324664 20.8782 0.892308L0.494535 21.9334C-0.101547 22.5538 -0.176297 23.5743 0.366119 24.2464C0.502327 24.416 0.669106 24.554 0.856304 24.6519C1.0435 24.7498 1.2472 24.8055 1.45501 24.8158C1.66282 24.826 1.87039 24.7906 2.06509 24.7115C2.25979 24.6325 2.43754 24.5115 2.58753 24.356L22.4729 3.8546C22.6156 3.70735 22.8054 3.62516 23.0029 3.62516C23.2003 3.62516 23.3901 3.70735 23.5328 3.8546L43.4201 24.356C43.713 24.6591 44.1054 24.8245 44.5112 24.816C44.9171 24.8074 45.3032 24.6257 45.585 24.3105C46.1734 23.6529 46.1245 22.5672 45.5121 21.9355Z" fill="white"/>
</g>
</svg>
