<svg width="50" height="50" viewBox="0 0 50 50" fill="none" xmlns="http://www.w3.org/2000/svg">
<g id="openmoji:youtube">
<path id="Vector" d="M44.3569 15.2127C44.1287 14.353 43.6785 13.5684 43.0516 12.9375C42.4246 12.3065 41.6429 11.8513 40.7847 11.6176C37.634 10.7676 25 10.7676 25 10.7676C25 10.7676 12.366 10.7676 9.21528 11.6176C8.35707 11.8513 7.57535 12.3065 6.94842 12.9375C6.32148 13.5684 5.87133 14.353 5.64306 15.2127C4.79861 18.3836 4.79861 25.0002 4.79861 25.0002C4.79861 25.0002 4.79861 31.6169 5.64306 34.7884C5.87133 35.6481 6.32148 36.4327 6.94842 37.0637C7.57535 37.6946 8.35707 38.1498 9.21528 38.3836C12.366 39.2329 25 39.2329 25 39.2329C25 39.2329 37.634 39.2329 40.7847 38.3836C41.6429 38.1498 42.4246 37.6946 43.0516 37.0637C43.6785 36.4327 44.1287 35.6481 44.3569 34.7884C45.2014 31.6169 45.2014 25.0002 45.2014 25.0002C45.2014 25.0002 45.2014 18.3836 44.3569 15.2127Z" fill="#EA5A47"/>
<path id="Vector_2" d="M20.8681 31.0071L31.4278 25.0001L20.8681 18.9932V31.0071Z" fill="white"/>
<path id="Vector_3" d="M44.3569 15.2127C44.1287 14.353 43.6785 13.5684 43.0516 12.9375C42.4246 12.3065 41.6429 11.8513 40.7847 11.6176C37.634 10.7676 25 10.7676 25 10.7676C25 10.7676 12.366 10.7676 9.21528 11.6176C8.35707 11.8513 7.57535 12.3065 6.94842 12.9375C6.32148 13.5684 5.87133 14.353 5.64306 15.2127C4.79861 18.3836 4.79861 25.0002 4.79861 25.0002C4.79861 25.0002 4.79861 31.6169 5.64306 34.7884C5.87133 35.6481 6.32148 36.4327 6.94842 37.0637C7.57535 37.6946 8.35707 38.1498 9.21528 38.3836C12.366 39.2329 25 39.2329 25 39.2329C25 39.2329 37.634 39.2329 40.7847 38.3836C41.6429 38.1498 42.4246 37.6946 43.0516 37.0637C43.6785 36.4327 44.1287 35.6481 44.3569 34.7884C45.2014 31.6169 45.2014 25.0002 45.2014 25.0002C45.2014 25.0002 45.2014 18.3836 44.3569 15.2127Z" stroke="black" stroke-width="2" stroke-miterlimit="10"/>
<path id="Vector_4" d="M20.8681 31.0071L31.4278 25.0001L20.8681 18.9932V31.0071Z" stroke="black" stroke-width="2" stroke-miterlimit="10" stroke-linecap="round" stroke-linejoin="round"/>
</g>
</svg>
