<svg width="46" height="47" viewBox="0 0 46 47" fill="none" xmlns="http://www.w3.org/2000/svg">
<g id="Group">
<path id="Vector" fill-rule="evenodd" clip-rule="evenodd" d="M23.1196 0H22.8804C20.8127 0 19.09 9.97942e-08 17.7238 0.178589C16.2794 0.366107 14.9753 0.781325 13.9288 1.79705C12.88 2.815 12.4522 4.08075 12.259 5.48044C12.075 6.80869 12.075 8.48296 12.075 10.4876V10.6617C7.42673 10.8091 4.63453 11.3359 2.69563 13.22C1.09713 14.7693 0.448532 16.8789 0.181732 20.0912H45.8183C45.5515 16.8766 44.9029 14.7693 43.3044 13.22C41.3655 11.3359 38.5733 10.8091 33.925 10.6617V10.4876C33.925 8.48296 33.925 6.80869 33.741 5.48267C33.5478 4.08075 33.12 2.815 32.0712 1.79928C31.0247 0.781325 29.7206 0.366107 28.2762 0.178589C26.91 9.97942e-08 25.185 0 23.1196 0ZM30.475 10.6082V10.6037C30.475 8.45171 30.4704 7.00514 30.3232 5.92691C30.1783 4.89779 29.9322 4.45579 29.6332 4.16558C29.3342 3.87537 28.8788 3.63651 27.8162 3.49587C26.7076 3.353 25.2172 3.34854 23 3.34854C20.7828 3.34854 19.2924 3.353 18.1815 3.4981C17.1212 3.63651 16.6658 3.87537 16.3668 4.16781C16.0678 4.45802 15.8217 4.89779 15.6768 5.92691C15.5319 7.00514 15.525 8.45171 15.525 10.6037V10.6082C16.4266 10.6037 17.3834 10.6037 18.4 10.6037H27.6C28.6166 10.6037 29.5734 10.6037 30.475 10.6082Z" fill="white"/>
<path id="Vector_2" d="M0 28.4626C0 26.5896 2.57045e-08 24.9243 0.0299 23.4398H45.9701C46 24.9243 46 26.5896 46 28.4626C46 30.3355 46 32.0009 45.9701 33.4854H0.0299C2.57045e-08 32.0009 0 30.3355 0 28.4626ZM0.184 36.8339C0.4485 40.0485 1.0971 42.1558 2.6956 43.7051C5.3889 46.3214 9.7267 46.3214 18.4 46.3214H27.6C36.2733 46.3214 40.6111 46.3214 43.3044 43.7051C44.9029 42.1558 45.5515 40.0463 45.8183 36.8339H0.184Z" fill="white"/>
</g>
</svg>
