<svg width="50" height="50" viewBox="0 0 50 50" fill="none" xmlns="http://www.w3.org/2000/svg">
<g id="Group 14">
<path id="Vector" d="M42.5716 3.77016C39.8397 1.13133 34.9013 0 28.5835 0H10.2478C9.62272 1.96142e-05 9.01815 0.189005 8.54278 0.532978C8.06742 0.876952 7.75244 1.35335 7.65448 1.87652L0.0198121 42.9106C-0.13194 43.7198 0.607411 44.4525 1.57517 44.4525H12.895L15.7379 29.1713L15.6497 29.6499C15.8522 28.5697 16.9423 27.773 18.2332 27.773H23.6124C34.1797 27.773 42.4542 24.1356 44.8712 13.6133C44.943 13.3021 45.0051 12.9992 45.0588 12.7033C44.7538 12.5664 44.7538 12.5664 45.0588 12.7033C45.7786 8.81421 45.0539 6.1669 42.5716 3.77016Z" fill="#27346A"/>
<path id="Vector_2" d="M20.0693 11.3023C20.3788 11.1775 20.7173 11.1127 21.06 11.1129H35.4349C37.1372 11.1129 38.7249 11.2068 40.1757 11.4047C40.5817 11.4595 40.9856 11.525 41.3868 11.6011C41.9554 11.7074 42.5175 11.8376 43.071 11.991C43.7843 12.1929 44.4485 12.428 45.059 12.7033C45.7786 8.81271 45.054 6.1669 42.5716 3.77016C39.8381 1.13133 34.9013 0 28.5835 0H10.2462C8.95516 0 7.85681 0.796534 7.65448 1.87652L0.0198132 42.9091C-0.131939 43.7196 0.607412 44.4514 1.57361 44.4514H12.895L18.7932 12.7545C18.8512 12.443 18.9976 12.148 19.2199 11.895C19.4422 11.6421 19.7337 11.4387 20.0693 11.3023Z" fill="#27346A"/>
<path id="Vector_3" d="M44.8712 13.6131C42.4542 24.1339 34.18 27.7728 23.6124 27.7728H18.2317C16.9408 27.7728 15.8505 28.5695 15.6499 29.6497L12.1131 48.65C11.981 49.3581 12.6272 49.9998 13.4726 49.9998H23.015C23.5616 49.9997 24.0902 49.8343 24.5058 49.5334C24.9214 49.2325 25.1966 48.8158 25.2821 48.3582L25.375 47.9462L27.1735 38.2867L27.2893 37.7529C27.3748 37.2954 27.65 36.8787 28.0655 36.5778C28.4811 36.2769 29.0096 36.1115 29.5562 36.1113H30.9843C40.2281 36.1113 47.4661 32.9288 49.5812 23.7247C50.4641 19.8782 50.0073 16.6669 47.6718 14.4112C46.9634 13.728 46.0837 13.1637 45.0589 12.7031C45.0034 13.0005 44.9432 13.3019 44.8712 13.6131Z" fill="#2790C3"/>
<path id="Vector_4" d="M42.5293 11.8487C42.1525 11.7554 41.772 11.6729 41.3887 11.6011C40.9872 11.5263 40.5834 11.4613 40.1776 11.4061C38.7252 11.2068 37.1386 11.1128 35.4348 11.1128H21.0617C20.7187 11.1121 20.38 11.1774 20.071 11.3037C19.735 11.4396 19.4432 11.6429 19.2208 11.8959C18.9984 12.149 18.8521 12.4441 18.7946 12.7559L15.7396 29.1714L15.6514 29.6499C15.8523 28.5697 16.9424 27.773 18.2335 27.773H23.6142C34.1816 27.773 42.4558 24.1356 44.8729 13.6134C44.9448 13.3022 45.0052 13.0006 45.0607 12.7034C44.4486 12.4296 43.7861 12.193 43.0726 11.9924C42.8926 11.9418 42.7115 11.8939 42.5295 11.8487" fill="#1F264F"/>
</g>
</svg>
