<svg width="70" height="40" viewBox="0 0 70 40" fill="none" xmlns="http://www.w3.org/2000/svg">
<path id="Vector" d="M26.5773 0.512474L17.4125 28.5785H11.4335L6.92344 6.17917C6.65 4.80286 6.41238 4.29636 5.58031 3.71438C4.22023 2.76596 1.97422 1.87895 0 1.32717L0.133164 0.512474H9.75926C10.9843 0.512474 12.0873 1.55954 12.3679 3.3725L14.7509 19.6148L20.6341 0.512474H26.5773ZM34.6601 0.512474L29.9835 28.5785H24.3266L29.0038 0.512474H34.6601ZM50.0043 19.415C50.0279 12.0091 42.0271 11.5981 42.0793 8.28909C42.0984 7.2831 42.8449 6.21217 44.479 5.93838C45.2884 5.80394 47.5245 5.69689 50.0574 7.19499L51.0483 1.23977C49.6874 0.607949 47.9361 0 45.7576 0C40.1658 0 36.2324 3.81267 36.2009 9.27648C36.1643 13.318 39.0105 15.5704 41.151 16.9166C43.3557 18.2911 44.0951 19.1746 44.085 20.4031C44.0691 22.2863 42.324 23.1199 40.7017 23.1508C37.8569 23.2088 36.2078 22.1638 34.8923 21.3772L33.8655 27.5297C35.1889 28.3082 37.628 28.9846 40.1543 29.019C46.0988 29.019 49.9868 25.2499 50.0043 19.415ZM64.77 28.5785H70L65.4309 0.512474H60.6055C59.5172 0.512474 58.6026 1.32331 58.1968 2.56974L49.7093 28.5785H55.6492L56.8274 24.386H64.0844L64.77 28.5785ZM58.4563 18.6347L61.4346 8.09498L63.1455 18.6347H58.456H58.4563ZM41.8997 36.3039H39.6011V39.0498H42.172V39.8754H38.8268V32.2578H42.0402V33.0834H39.6011V35.4902H41.8994V36.3046L41.8997 36.3039ZM43.3595 31.851H44.1339V39.875H43.3595V31.851ZM46.0879 37.3207C46.1054 38.6662 46.766 39.2197 47.5491 39.2197C48.1042 39.2197 48.4474 39.0954 48.7296 38.9375L48.8701 39.6497C48.5972 39.8076 48.122 39.9996 47.4436 39.9996C46.1322 39.9996 45.3488 38.881 45.3488 37.2305C45.3488 35.5808 46.1054 34.2919 47.3471 34.2919C48.7471 34.2919 49.108 35.8521 49.108 36.8578C49.108 37.061 49.099 37.2077 49.0812 37.3211L46.0879 37.3207ZM48.3593 36.6089C48.3684 35.9876 48.157 35.0041 47.2853 35.0041C46.4929 35.0041 46.1582 35.9195 46.0964 36.6089H48.3593ZM53.3233 39.683C53.121 39.8076 52.6717 40 52.0997 40C50.8143 40 49.9778 38.881 49.9778 37.2081C49.9778 35.5239 50.8755 34.2922 52.2668 34.2922C52.7245 34.2922 53.1295 34.4386 53.3408 34.586L53.1653 35.3432C52.9796 35.2189 52.6892 35.0827 52.2668 35.0827C51.2892 35.0827 50.7615 36.021 50.7615 37.1519C50.7615 38.4173 51.3953 39.1972 52.2405 39.1972C52.6807 39.1972 52.9711 39.0617 53.1912 38.9375L53.3233 39.683ZM55.4966 33.0939V34.4049H56.6057V35.1617H55.4966V38.1119C55.4966 38.7908 55.6464 39.1744 56.0777 39.1744C56.2887 39.1744 56.4123 39.1523 56.5269 39.1063L56.5622 39.8645C56.4123 39.9319 56.1747 39.9996 55.8753 39.9996C55.5141 39.9996 55.2234 39.8413 55.0389 39.5819C54.8275 39.2762 54.7395 38.7908 54.7395 38.1463V35.1617H54.0788V34.4049H54.7395V33.388L55.4969 33.0942L55.4966 33.0939ZM57.6877 36.1119C57.6877 35.4674 57.6784 34.9139 57.6524 34.4049H58.3305L58.3661 35.4895H58.3918C58.5859 34.7556 59.0609 34.2919 59.5801 34.2919C59.6597 34.2919 59.7215 34.3035 59.792 34.3143V35.2529C59.7127 35.2298 59.6337 35.2298 59.5273 35.2298C58.9821 35.2298 58.5941 35.7496 58.4888 36.4962C58.4707 36.6496 58.4618 36.8045 58.4623 36.9596V39.8757H57.6877V36.1119ZM64.5539 37.0947C64.5539 39.1179 63.4531 39.9996 62.4321 39.9996C61.2872 39.9996 60.3895 38.9143 60.3895 37.1856C60.3895 35.3656 61.3315 34.2922 62.5026 34.2922C63.7262 34.2922 64.5539 35.4327 64.5539 37.0947ZM61.1816 37.1516C61.1816 38.3496 61.7099 39.2541 62.4671 39.2541C63.207 39.2541 63.7613 38.3604 63.7613 37.1287C63.7613 36.2021 63.4003 35.0374 62.4846 35.0374C61.5781 35.0374 61.1816 36.1231 61.1816 37.1516ZM65.7412 35.8855C65.7412 35.3095 65.7319 34.857 65.7057 34.4053H66.3925L66.4366 35.3095H66.4541C66.6654 34.8005 67.1584 34.2922 67.8628 34.2922C68.4523 34.2922 69.3684 34.7443 69.3684 36.6198V39.8754H68.5937V36.7219C68.5937 35.8409 68.3383 35.1055 67.6077 35.1055C67.1057 35.1055 66.7092 35.5692 66.5689 36.1227C66.5334 36.2474 66.5159 36.4165 66.5159 36.5864V39.8754H65.7412V35.8855Z" fill="#4B52C3"/>
</svg>
